<mxfile host="app.diagrams.net" modified="2023-12-11T18:43:14.757Z" agent="Mozilla/5.0 (Windows NT 10.0; Win64; x64) AppleWebKit/537.36 (KHTML, like Gecko) Chrome/118.0.0.0 Safari/537.36 OPR/104.0.0.0" etag="1fqxLFPhA-0Jdu-_SAJZ" version="22.1.7" type="device">
  <diagram name="Страница 1" id="YW91PB4rHEMt5rg3uFnZ">
    <mxGraphModel dx="1469" dy="684" grid="1" gridSize="10" guides="1" tooltips="1" connect="1" arrows="1" fold="1" page="1" pageScale="1" pageWidth="827" pageHeight="1169" math="0" shadow="0">
      <root>
        <mxCell id="0" />
        <mxCell id="1" parent="0" />
        <mxCell id="c2hw_XhxiZxsvKRolTbk-1" value="" style="ellipse;whiteSpace=wrap;html=1;rounded=0;shadow=0;comic=0;labelBackgroundColor=none;strokeWidth=1;fillColor=#000000;fontFamily=Verdana;fontSize=12;align=center;" parent="1" vertex="1">
          <mxGeometry x="380" y="28" width="40" height="40" as="geometry" />
        </mxCell>
        <mxCell id="c2hw_XhxiZxsvKRolTbk-3" value="Ввод m" style="rounded=1;whiteSpace=wrap;html=1;arcSize=50;" parent="1" vertex="1">
          <mxGeometry x="355" y="90" width="90" height="30" as="geometry" />
        </mxCell>
        <mxCell id="c2hw_XhxiZxsvKRolTbk-5" value="" style="endArrow=classic;html=1;rounded=0;exitX=0.5;exitY=1;exitDx=0;exitDy=0;entryX=0.5;entryY=0;entryDx=0;entryDy=0;" parent="1" source="c2hw_XhxiZxsvKRolTbk-1" target="c2hw_XhxiZxsvKRolTbk-3" edge="1">
          <mxGeometry width="50" height="50" relative="1" as="geometry">
            <mxPoint x="390" y="330" as="sourcePoint" />
            <mxPoint x="440" y="280" as="targetPoint" />
          </mxGeometry>
        </mxCell>
        <mxCell id="c2hw_XhxiZxsvKRolTbk-6" value="" style="endArrow=classic;html=1;rounded=0;entryX=0.5;entryY=0;entryDx=0;entryDy=0;exitX=0.5;exitY=1;exitDx=0;exitDy=0;" parent="1" source="c2hw_XhxiZxsvKRolTbk-3" edge="1">
          <mxGeometry width="50" height="50" relative="1" as="geometry">
            <mxPoint x="290" y="250" as="sourcePoint" />
            <mxPoint x="400" y="140" as="targetPoint" />
          </mxGeometry>
        </mxCell>
        <mxCell id="nz1HooEacb7RfCHxsvYk-1" value="" style="rhombus;whiteSpace=wrap;html=1;" vertex="1" parent="1">
          <mxGeometry x="370" y="140" width="60" height="60" as="geometry" />
        </mxCell>
        <mxCell id="nz1HooEacb7RfCHxsvYk-2" value="" style="endArrow=none;html=1;rounded=0;entryX=1;entryY=0.5;entryDx=0;entryDy=0;" edge="1" parent="1" target="nz1HooEacb7RfCHxsvYk-1">
          <mxGeometry width="50" height="50" relative="1" as="geometry">
            <mxPoint x="520" y="170" as="sourcePoint" />
            <mxPoint x="490" y="190" as="targetPoint" />
          </mxGeometry>
        </mxCell>
        <mxCell id="nz1HooEacb7RfCHxsvYk-3" value="" style="endArrow=none;html=1;rounded=0;entryX=1;entryY=0.5;entryDx=0;entryDy=0;" edge="1" parent="1">
          <mxGeometry width="50" height="50" relative="1" as="geometry">
            <mxPoint x="370" y="169.66" as="sourcePoint" />
            <mxPoint x="280" y="169.66" as="targetPoint" />
          </mxGeometry>
        </mxCell>
        <mxCell id="nz1HooEacb7RfCHxsvYk-9" style="edgeStyle=orthogonalEdgeStyle;rounded=0;orthogonalLoop=1;jettySize=auto;html=1;exitX=1;exitY=1;exitDx=0;exitDy=0;entryX=0.5;entryY=0;entryDx=0;entryDy=0;" edge="1" parent="1" source="nz1HooEacb7RfCHxsvYk-4" target="nz1HooEacb7RfCHxsvYk-8">
          <mxGeometry relative="1" as="geometry" />
        </mxCell>
        <mxCell id="nz1HooEacb7RfCHxsvYk-4" value="m &amp;gt; 0 or m &amp;lt; 13" style="text;html=1;strokeColor=none;fillColor=none;align=center;verticalAlign=middle;whiteSpace=wrap;rounded=0;" vertex="1" parent="1">
          <mxGeometry x="430" y="140" width="90" height="30" as="geometry" />
        </mxCell>
        <mxCell id="nz1HooEacb7RfCHxsvYk-7" style="edgeStyle=orthogonalEdgeStyle;rounded=0;orthogonalLoop=1;jettySize=auto;html=1;exitX=0;exitY=1;exitDx=0;exitDy=0;entryX=0.5;entryY=0;entryDx=0;entryDy=0;" edge="1" parent="1" source="nz1HooEacb7RfCHxsvYk-5" target="nz1HooEacb7RfCHxsvYk-6">
          <mxGeometry relative="1" as="geometry" />
        </mxCell>
        <mxCell id="nz1HooEacb7RfCHxsvYk-5" value="m &amp;lt; 0 or m &amp;gt; 12" style="text;html=1;strokeColor=none;fillColor=none;align=center;verticalAlign=middle;whiteSpace=wrap;rounded=0;" vertex="1" parent="1">
          <mxGeometry x="280" y="140" width="90" height="30" as="geometry" />
        </mxCell>
        <mxCell id="nz1HooEacb7RfCHxsvYk-6" value="Вывод &quot;Не существует месяца с таким числом&quot;" style="rounded=1;whiteSpace=wrap;html=1;arcSize=50;" vertex="1" parent="1">
          <mxGeometry x="230" y="210" width="100" height="60" as="geometry" />
        </mxCell>
        <mxCell id="nz1HooEacb7RfCHxsvYk-8" value="" style="rhombus;whiteSpace=wrap;html=1;" vertex="1" parent="1">
          <mxGeometry x="490" y="210" width="60" height="60" as="geometry" />
        </mxCell>
        <mxCell id="nz1HooEacb7RfCHxsvYk-10" value="" style="endArrow=none;html=1;rounded=0;entryX=0.5;entryY=1;entryDx=0;entryDy=0;" edge="1" parent="1" target="nz1HooEacb7RfCHxsvYk-8">
          <mxGeometry width="50" height="50" relative="1" as="geometry">
            <mxPoint x="420" y="320" as="sourcePoint" />
            <mxPoint x="490" y="330" as="targetPoint" />
          </mxGeometry>
        </mxCell>
        <mxCell id="nz1HooEacb7RfCHxsvYk-14" value="[m ==1 or m == 3 or m == 5 or m == 7 or m == 8 or m == 10 or m == 12]" style="edgeLabel;html=1;align=center;verticalAlign=middle;resizable=0;points=[];" vertex="1" connectable="0" parent="nz1HooEacb7RfCHxsvYk-10">
          <mxGeometry x="-0.3425" y="-2" relative="1" as="geometry">
            <mxPoint x="-114" as="offset" />
          </mxGeometry>
        </mxCell>
        <mxCell id="nz1HooEacb7RfCHxsvYk-11" value="" style="endArrow=none;html=1;rounded=0;" edge="1" parent="1">
          <mxGeometry width="50" height="50" relative="1" as="geometry">
            <mxPoint x="520" y="380" as="sourcePoint" />
            <mxPoint x="520" y="270" as="targetPoint" />
          </mxGeometry>
        </mxCell>
        <mxCell id="nz1HooEacb7RfCHxsvYk-16" value="[m == 4 or m == 6 or m == 9 or m == 11" style="edgeLabel;html=1;align=center;verticalAlign=middle;resizable=0;points=[];" vertex="1" connectable="0" parent="nz1HooEacb7RfCHxsvYk-11">
          <mxGeometry x="-0.4775" y="-1" relative="1" as="geometry">
            <mxPoint as="offset" />
          </mxGeometry>
        </mxCell>
        <mxCell id="nz1HooEacb7RfCHxsvYk-12" value="" style="endArrow=none;html=1;rounded=0;entryX=0.5;entryY=1;entryDx=0;entryDy=0;" edge="1" parent="1" target="nz1HooEacb7RfCHxsvYk-8">
          <mxGeometry width="50" height="50" relative="1" as="geometry">
            <mxPoint x="620" y="320" as="sourcePoint" />
            <mxPoint x="490" y="330" as="targetPoint" />
          </mxGeometry>
        </mxCell>
        <mxCell id="nz1HooEacb7RfCHxsvYk-17" value="else" style="edgeLabel;html=1;align=center;verticalAlign=middle;resizable=0;points=[];" vertex="1" connectable="0" parent="nz1HooEacb7RfCHxsvYk-12">
          <mxGeometry x="-0.8477" y="2" relative="1" as="geometry">
            <mxPoint x="-32" y="-18" as="offset" />
          </mxGeometry>
        </mxCell>
        <mxCell id="nz1HooEacb7RfCHxsvYk-19" value="" style="endArrow=classic;html=1;rounded=0;" edge="1" parent="1">
          <mxGeometry width="50" height="50" relative="1" as="geometry">
            <mxPoint x="620" y="320" as="sourcePoint" />
            <mxPoint x="620" y="400" as="targetPoint" />
          </mxGeometry>
        </mxCell>
        <mxCell id="nz1HooEacb7RfCHxsvYk-20" value="" style="endArrow=classic;html=1;rounded=0;" edge="1" parent="1">
          <mxGeometry width="50" height="50" relative="1" as="geometry">
            <mxPoint x="520" y="380" as="sourcePoint" />
            <mxPoint x="520" y="400" as="targetPoint" />
          </mxGeometry>
        </mxCell>
        <mxCell id="nz1HooEacb7RfCHxsvYk-21" value="" style="endArrow=classic;html=1;rounded=0;" edge="1" parent="1">
          <mxGeometry width="50" height="50" relative="1" as="geometry">
            <mxPoint x="420" y="320" as="sourcePoint" />
            <mxPoint x="420" y="400" as="targetPoint" />
          </mxGeometry>
        </mxCell>
        <mxCell id="nz1HooEacb7RfCHxsvYk-22" value="Вывод 31" style="rounded=1;whiteSpace=wrap;html=1;arcSize=50;" vertex="1" parent="1">
          <mxGeometry x="380" y="400" width="80" height="30" as="geometry" />
        </mxCell>
        <mxCell id="nz1HooEacb7RfCHxsvYk-28" style="edgeStyle=orthogonalEdgeStyle;rounded=0;orthogonalLoop=1;jettySize=auto;html=1;" edge="1" parent="1" source="nz1HooEacb7RfCHxsvYk-23" target="nz1HooEacb7RfCHxsvYk-25">
          <mxGeometry relative="1" as="geometry" />
        </mxCell>
        <mxCell id="nz1HooEacb7RfCHxsvYk-23" value="Вывод 30" style="rounded=1;whiteSpace=wrap;html=1;arcSize=50;" vertex="1" parent="1">
          <mxGeometry x="480" y="400" width="80" height="30" as="geometry" />
        </mxCell>
        <mxCell id="nz1HooEacb7RfCHxsvYk-24" value="Вывод 28" style="rounded=1;whiteSpace=wrap;html=1;arcSize=50;" vertex="1" parent="1">
          <mxGeometry x="580" y="400" width="80" height="30" as="geometry" />
        </mxCell>
        <mxCell id="nz1HooEacb7RfCHxsvYk-25" value="" style="rhombus;whiteSpace=wrap;html=1;" vertex="1" parent="1">
          <mxGeometry x="490" y="480" width="60" height="60" as="geometry" />
        </mxCell>
        <mxCell id="nz1HooEacb7RfCHxsvYk-27" value="" style="endArrow=classic;html=1;rounded=0;exitX=0.5;exitY=1;exitDx=0;exitDy=0;entryX=0.5;entryY=0;entryDx=0;entryDy=0;" edge="1" parent="1" source="nz1HooEacb7RfCHxsvYk-22" target="nz1HooEacb7RfCHxsvYk-25">
          <mxGeometry width="50" height="50" relative="1" as="geometry">
            <mxPoint x="440" y="470" as="sourcePoint" />
            <mxPoint x="490" y="420" as="targetPoint" />
          </mxGeometry>
        </mxCell>
        <mxCell id="nz1HooEacb7RfCHxsvYk-29" value="" style="endArrow=classic;html=1;rounded=0;exitX=0.5;exitY=1;exitDx=0;exitDy=0;entryX=0.5;entryY=0;entryDx=0;entryDy=0;" edge="1" parent="1" source="nz1HooEacb7RfCHxsvYk-24" target="nz1HooEacb7RfCHxsvYk-25">
          <mxGeometry width="50" height="50" relative="1" as="geometry">
            <mxPoint x="440" y="470" as="sourcePoint" />
            <mxPoint x="490" y="420" as="targetPoint" />
          </mxGeometry>
        </mxCell>
        <mxCell id="nz1HooEacb7RfCHxsvYk-30" value="" style="ellipse;whiteSpace=wrap;html=1;rounded=0;shadow=0;comic=0;labelBackgroundColor=none;strokeWidth=1;fillColor=#000000;fontFamily=Verdana;fontSize=12;align=center;" vertex="1" parent="1">
          <mxGeometry x="380" y="590" width="40" height="40" as="geometry" />
        </mxCell>
        <mxCell id="nz1HooEacb7RfCHxsvYk-31" value="" style="endArrow=none;html=1;rounded=0;entryX=0.5;entryY=1;entryDx=0;entryDy=0;" edge="1" parent="1" target="nz1HooEacb7RfCHxsvYk-6">
          <mxGeometry width="50" height="50" relative="1" as="geometry">
            <mxPoint x="280" y="560" as="sourcePoint" />
            <mxPoint x="310" y="400" as="targetPoint" />
          </mxGeometry>
        </mxCell>
        <mxCell id="nz1HooEacb7RfCHxsvYk-32" value="" style="endArrow=none;html=1;rounded=0;entryX=0.5;entryY=1;entryDx=0;entryDy=0;" edge="1" parent="1" target="nz1HooEacb7RfCHxsvYk-25">
          <mxGeometry width="50" height="50" relative="1" as="geometry">
            <mxPoint x="520" y="560" as="sourcePoint" />
            <mxPoint x="310" y="400" as="targetPoint" />
          </mxGeometry>
        </mxCell>
        <mxCell id="nz1HooEacb7RfCHxsvYk-33" value="" style="endArrow=none;html=1;rounded=0;" edge="1" parent="1">
          <mxGeometry width="50" height="50" relative="1" as="geometry">
            <mxPoint x="280" y="560" as="sourcePoint" />
            <mxPoint x="520" y="560" as="targetPoint" />
          </mxGeometry>
        </mxCell>
        <mxCell id="nz1HooEacb7RfCHxsvYk-34" value="" style="endArrow=classic;html=1;rounded=0;entryX=0.5;entryY=0;entryDx=0;entryDy=0;" edge="1" parent="1" target="nz1HooEacb7RfCHxsvYk-30">
          <mxGeometry width="50" height="50" relative="1" as="geometry">
            <mxPoint x="400" y="560" as="sourcePoint" />
            <mxPoint x="310" y="400" as="targetPoint" />
          </mxGeometry>
        </mxCell>
      </root>
    </mxGraphModel>
  </diagram>
</mxfile>
